<svg width="1440" height="1706.67" viewBox="0 0 1080 1280" xmlns="http://www.w3.org/2000/svg" xmlns:xlink="http://www.w3.org/1999/xlink" overflow="hidden"><g transform="matrix(0.1 0 0 -0.1 0 1280)"><path d="M9984 12758C9968 12734 9901 12607 9834 12476 9768 12344 9709 12235 9703 12233 9697 12231 9667 12294 9636 12373 9564 12557 9491 12680 9454 12680 9429 12680 9399 12573 9371 12380 9357 12280 9350 12254 9337 12252 9327 12250 9269 12298 9185 12379 9110 12451 9043 12510 9036 12510 9014 12510 8990 12475 8990 12441 8990 12352 9097 11996 9174 11826 9194 11783 9208 11744 9205 11739 9202 11735 9178 11728 9152 11725 8920 11694 8846 11668 8672 11557 8336 11341 8152 11203 8000 11050 7784 10833 7696 10663 7445 9985 7330 9675 7265 9519 7198 9388 7144 9282 7066 9198 6941 9110 6905 9085 6861 9050 6842 9031 6794 8983 6565 8847 6469 8810 6356 8767 6307 8759 6232 8772 6154 8786 6158 8788 5905 8625 5559 8403 5356 8293 5183 8233 5082 8199 4979 8199 4590 8236 4362 8258 4248 8263 4020 8264 3717 8265 3670 8260 3505 8213L3415 8187 3230 8198C3128 8204 3014 8217 2975 8226 2897 8244 2874 8263 2757 8410 2524 8701 2335 9060 1945 9950 1769 10352 1593 10712 1512 10836 1438 10950 1327 11068 1260 11104 1168 11154 1051 11147 1007 11088 950 11011 994 10800 1139 10465 1172 10388 1196 10324 1191 10322 1187 10321 1143 10359 1093 10408 1001 10499 920 10550 867 10550 818 10550 771 10521 742 10471 717 10428 715 10418 716 10315 717 10167 761 10000 874 9708 910 9614 889 9621 815 9727 560 10094 392 10223 319 10107 301 10079 299 10063 303 9980 310 9844 366 9649 488 9337 524 9245 550 9167 546 9163 542 9159 529 9162 517 9170 430 9225 376 9229 331 9186L300 9157 259 9176C196 9204 145 9199 107 9161 78 9132 75 9124 72 9051 66 8930 104 8813 234 8550 324 8369 421 8200 572 7957 627 7870 669 7793 667 7787 665 7781 637 7804 604 7839 510 7941 331 8099 253 8150 136 8227 67 8226 35 8147-16 8020 148 7685 503 7190 556 7116 600 7050 600 7044 600 7036 549 7031 438 7027 268 7021 175 7003 90 6960 49 6939 0 6883 0 6858 0 6803 158 6749 593 6655 708 6630 696 6619 540 6605 405 6592 289 6548 255 6496 175 6374 260 6271 480 6227 515 6219 546 6208 548 6202 550 6196 518 6174 478 6154 345 6087 303 6040 314 5972 330 5871 465 5820 717 5820L828 5820 827 5761C825 5686 857 5634 927 5599 971 5577 986 5575 1115 5576 1219 5577 1281 5583 1355 5599 1410 5611 1469 5623 1485 5626L1516 5632 1554 5528C1666 5230 1815 4990 1957 4878 2104 4764 2476 4581 2771 4477 2781 4474 2803 4425 2829 4349 2930 4055 3064 3839 3204 3744 3233 3724 3298 3696 3355 3679 3554 3618 3771 3492 4041 3279 4306 3069 4336 3047 4377 3029 4399 3020 4421 3003 4424 2993 4427 2983 4454 2883 4485 2770 4620 2281 4800 1704 4889 1481 4911 1424 4930 1371 4930 1364 4930 1355 4891 1331 4837 1306 4701 1243 4634 1198 4611 1153 4601 1131 4576 1068 4556 1011L4520 908 4547 915C4629 935 4779 1017 4804 1055 4824 1085 4867 1097 4990 1105L5085 1111 5250 1057C5415 1002 5884 829 5924 808 5936 802 6005 753 6078 698 6213 598 6231 591 6260 625 6272 640 6243 705 6169 828 6099 942 6070 971 5975 1020 5889 1065 5862 1085 5873 1096 5880 1104 5947 1118 6300 1186 6600 1244 6650 1256 6650 1271 6650 1290 6687 1279 6698 1256 6711 1226 6879 944 6971 794 7009 733 7040 679 7040 673 7040 667 6990 645 6929 624 6759 566 6746 555 6671 410L6607 287 6648 294C6729 306 6850 351 6893 384 6949 427 6972 430 7109 419L7224 410 7294 341C7371 267 7376 265 7505 255 7681 241 8204 176 8265 159 8287 153 8372 119 8454 82L8603 16 8621 39C8632 52 8640 68 8640 74 8640 92 8444 296 8396 329 8374 344 8325 364 8289 373 8196 395 8144 418 8157 431 8163 437 8322 510 8511 595 8868 754 8900 774 8866 808 8839 835 8722 830 8364 784 8297 775 8230 770 8214 772 8186 776 8186 776 8226 788 8249 795 8307 806 8356 813L8445 825 8448 858C8452 899 8440 904 8283 926 8093 952 8030 942 7705 834L7536 778 7513 807C7415 928 7224 1222 7082 1472 6975 1657 6770 2060 6770 2082 6770 2089 6793 2103 6821 2113 6910 2145 7082 2328 7258 2578 7333 2685 7400 2792 7400 2807 7400 2812 7434 2854 7476 2901 7666 3109 7796 3294 7890 3484 7990 3689 8050 3885 8150 4340 8172 4442 8194 4534 8199 4545 8204 4557 8233 4574 8271 4589 8440 4652 8660 4782 8794 4895 8940 5019 9025 5159 9155 5490 9380 6060 9512 6666 9526 7195 9530 7347 9535 7401 9553 7463 9573 7538 9573 7544 9558 7598 9550 7629 9522 7700 9496 7755 9462 7829 9450 7867 9450 7903 9450 7929 9473 8043 9500 8158 9653 8786 9696 9084 9650 9205 9636 9241 9572 9551 9545 9714 9519 9869 9521 9898 9558 9872 9614 9833 9705 9789 9770 9768 9829 9750 9868 9745 9955 9745 10055 9745 10070 9748 10121 9773 10188 9805 10268 9886 10304 9958 10353 10054 10365 10120 10362 10285 10361 10368 10359 10449 10358 10465 10355 10495 10355 10495 10411 10498 10459 10501 10474 10497 10517 10470 10574 10435 10624 10420 10690 10421 10741 10421 10758 10431 10785 10477 10802 10506 10802 10513 10790 10552 10744 10698 10609 10876 10457 10990 10432 11009 10410 11030 10410 11037 10410 11043 10429 11063 10453 11080 10507 11118 10561 11189 10596 11263 10651 11385 10675 11601 10650 11760 10635 11851 10590 11990 10575 11990 10568 11990 10550 11996 10534 12004 10510 12017 10502 12017 10473 12005 10447 11994 10438 11993 10435 12003 10433 12010 10429 12080 10426 12160 10422 12285 10404 12399 10384 12431 10366 12460 10265 12359 10174 12224 10133 12161 10094 12110 10088 12110 10080 12110 10079 12139 10083 12203 10106 12535 10101 12686 10064 12764 10041 12811 10019 12810 9984 12758ZM5490 2995C5558 2960 5624 2921 5637 2908 5675 2872 5746 2760 5843 2580 5971 2344 6034 2239 6067 2207 6083 2192 6123 2169 6156 2157 6224 2131 6193 2178 6441 1720 6648 1336 6645 1342 6640 1336 6637 1334 6585 1340 6525 1350 6464 1360 6327 1378 6219 1389 5972 1415 5919 1433 6111 1425 6257 1419 6260 1420 6260 1470 6260 1492 6195 1524 6056 1571 5934 1613 5821 1618 5558 1595 5365 1578 5356 1578 5344 1595 5325 1621 5245 1814 5183 1984 5096 2223 4940 2766 4940 2828 4940 2843 4982 2870 5123 2945 5223 2998 5309 3046 5315 3051 5334 3070 5371 3058 5490 2995Z" fill="#ffffff"/></g></svg>